<svg xmlns="http://www.w3.org/2000/svg" xmlns:xlink="http://www.w3.org/1999/xlink" width="80px" height="25px" viewBox="0 0 106 28" version="1.1">
<defs fill="#000000">
<clipPath id="clip1" fill="#000000">
  <rect x="0" y="0" width="80" height="28" fill="#000000"/>
</clipPath>
<g id="surface5" clip-path="url(#clip1)">
<path style=" stroke:none;fill-rule:nonzero;fill:rgb(100%,100%,0%);fill-opacity:1;" d="M 8.679688 26.070312 L 7.382812 20.285156 L 1.695312 18.789062 L 4.886719 13.800781 L 1.894531 8.714844 L 7.679688 7.417969 L 9.175781 1.730469 L 14.164062 4.921875 L 19.25 1.929688 L 20.546875 7.714844 L 26.234375 9.210938 L 23.140625 14.199219 L 26.035156 19.285156 L 20.25 20.582031 L 18.753906 26.269531 L 13.765625 23.175781 Z M 8.679688 26.070312 "/>
</g>
<clipPath id="clip2" fill="#000000">
  <rect x="0" y="0" width="80" height="28" fill="#000000"/>
</clipPath>
<g id="surface8" clip-path="url(#clip2)">
<path style=" stroke:none;fill-rule:nonzero;fill:#111318;fill-opacity:1;" d="M 22.34375 14 C 22.34375 18.589844 18.554688 22.378906 13.964844 22.378906 C 9.375 22.378906 5.585938 18.589844 5.585938 14 C 5.585938 9.410156 9.375 5.621094 13.964844 5.621094 C 18.652344 5.621094 22.34375 9.410156 22.34375 14 Z M 22.34375 14 "/>
</g>
<radialGradient id="radial0" gradientUnits="userSpaceOnUse" cx="0.96" cy="-117.2687" fx="0.96" fy="-117.2687" r="33.0498" gradientTransform="matrix(0.216153,0,0,0.216153,13.77752,39.366681)" fill="#000000">
<stop offset="0" style="stop-color:rgb(100%,100%,0%);stop-opacity:1;" fill="#000000"/>
<stop offset="0.6798" style="stop-color:rgb(100%,100%,0%);stop-opacity:1;" fill="#000000"/>
<stop offset="1" style="stop-color:rgb(49.803922%,49.803922%,49.803922%);stop-opacity:1;" fill="#000000"/>
</radialGradient>
<clipPath id="clip3" fill="#000000">
  <rect x="0" y="0" width="80" height="28" fill="#000000"/>
</clipPath>
<g id="surface11" clip-path="url(#clip3)">
<path style=" stroke:none;fill-rule:nonzero;fill:url(#radial0);" d="M 21.144531 14 C 21.144531 17.988281 17.953125 21.183594 13.964844 21.183594 C 9.976562 21.183594 6.78125 17.988281 6.78125 14 C 6.78125 10.011719 9.976562 6.816406 13.964844 6.816406 C 17.953125 6.917969 21.144531 10.109375 21.144531 14 Z M 21.144531 14 "/>
</g>
</defs>
<g id="surface1">
<path style=" stroke:none;fill-rule:nonzero;fill:#111318;fill-opacity:1;" d="M 27.929688 14 C 27.929688 21.710938 21.675781 27.964844 13.964844 27.964844 C 6.253906 27.964844 0 21.710938 0 14 C 0 6.289062 6.253906 0.0351562 13.964844 0.0351562 C 21.675781 0.0351562 27.929688 6.289062 27.929688 14 Z M 27.929688 14 "/>
<path style=" stroke:none;fill-rule:evenodd;fill:rgb(100%,34.901961%,0%);fill-opacity:1;" d="M 13.566406 27.964844 L 13.566406 20.882812 L 12.667969 27.863281 L 13.167969 20.78125 L 11.769531 27.765625 L 12.667969 20.78125 L 10.972656 27.664062 L 12.269531 20.683594 L 10.074219 27.464844 L 11.871094 20.484375 L 9.277344 27.167969 L 11.472656 20.382812 L 8.480469 26.867188 L 11.070312 20.183594 L 7.679688 26.46875 L 10.671875 19.984375 L 6.882812 26.070312 L 10.375 19.785156 L 6.183594 25.570312 L 9.976562 19.585938 L 5.386719 25.070312 L 9.675781 19.285156 L 4.789062 24.472656 L 9.277344 18.988281 L 4.089844 23.875 L 8.976562 18.6875 L 3.492188 23.277344 L 8.679688 18.390625 L 2.992188 22.578125 L 8.480469 17.988281 L 2.492188 21.878906 L 8.179688 17.691406 L 1.996094 21.082031 L 7.980469 17.292969 L 1.597656 20.382812 L 7.78125 16.894531 L 1.195312 19.585938 L 7.679688 16.492188 L 0.898438 18.789062 L 7.480469 16.09375 L 0.597656 17.890625 L 7.382812 15.695312 L 0.398438 17.09375 L 7.28125 15.296875 L 0.199219 16.195312 L 7.183594 14.898438 L 0.101562 15.296875 L 7.183594 14.5 L 0 14.5 L 7.183594 14 L 0 13.601562 L 7.183594 13.601562 L 0.101562 12.703125 L 7.183594 13.203125 L 0.199219 11.804688 L 7.28125 12.703125 L 0.398438 11.007812 L 7.382812 12.304688 L 0.597656 10.109375 L 7.480469 11.90625 L 0.898438 9.3125 L 7.679688 11.507812 L 1.195312 8.515625 L 7.78125 11.105469 L 1.597656 7.714844 L 7.980469 10.707031 L 1.996094 6.917969 L 8.179688 10.308594 L 2.492188 6.21875 L 8.480469 10.011719 L 2.992188 5.421875 L 8.679688 9.710938 L 3.492188 4.824219 L 8.976562 9.3125 L 4.089844 4.125 L 9.277344 9.011719 L 4.789062 3.527344 L 9.675781 8.714844 L 5.386719 3.027344 L 9.976562 8.515625 L 6.183594 2.527344 L 10.273438 8.214844 L 6.882812 2.03125 L 10.671875 8.015625 L 7.679688 1.632812 L 11.070312 7.816406 L 8.480469 1.230469 L 11.472656 7.617188 L 9.277344 0.933594 L 11.871094 7.515625 L 10.074219 0.632812 L 12.269531 7.417969 L 10.972656 0.433594 L 12.667969 7.316406 L 11.769531 0.234375 L 13.167969 7.21875 L 12.667969 0.136719 L 13.566406 7.21875 L 13.566406 0.0351562 L 13.964844 7.21875 L 14.464844 0.0351562 L 14.464844 7.21875 L 15.261719 0.136719 L 14.863281 7.21875 L 16.160156 0.234375 L 15.261719 7.316406 L 17.058594 0.433594 L 15.660156 7.417969 L 17.855469 0.632812 L 16.058594 7.515625 L 18.753906 0.933594 L 16.457031 7.714844 L 19.550781 1.230469 L 16.855469 7.816406 L 20.347656 1.632812 L 17.257812 8.015625 L 21.046875 2.03125 L 17.65625 8.214844 L 21.84375 2.527344 L 17.953125 8.515625 L 22.542969 3.027344 L 18.355469 8.714844 L 23.242188 3.527344 L 18.652344 9.011719 L 23.839844 4.125 L 18.953125 9.3125 L 24.4375 4.824219 L 19.25 9.710938 L 25.035156 5.421875 L 19.550781 10.011719 L 25.535156 6.21875 L 19.75 10.308594 L 26.035156 6.917969 L 19.949219 10.707031 L 26.433594 7.714844 L 20.148438 11.105469 L 26.832031 8.515625 L 20.347656 11.507812 L 27.132812 9.3125 L 20.449219 11.90625 L 27.429688 10.109375 L 20.648438 12.304688 L 27.628906 11.007812 L 20.746094 12.703125 L 27.730469 11.804688 L 20.746094 13.203125 L 27.828125 12.703125 L 20.847656 13.601562 L 27.929688 13.601562 L 20.847656 14 L 27.929688 14.5 L 20.847656 14.5 L 27.828125 15.296875 L 20.746094 14.898438 L 27.730469 16.195312 L 20.746094 15.296875 L 27.628906 17.09375 L 20.648438 15.695312 L 27.429688 17.890625 L 20.449219 16.09375 L 27.132812 18.789062 L 20.347656 16.492188 L 26.832031 19.585938 L 20.148438 16.894531 L 26.433594 20.382812 L 19.949219 17.292969 L 26.035156 21.082031 L 19.75 17.691406 L 25.535156 21.878906 L 19.550781 17.988281 L 25.035156 22.578125 L 19.25 18.390625 L 24.4375 23.277344 L 18.953125 18.6875 L 23.839844 23.875 L 18.652344 18.988281 L 23.242188 24.472656 L 18.355469 19.285156 L 22.542969 25.070312 L 17.953125 19.585938 L 21.84375 25.570312 L 17.65625 19.785156 L 21.046875 26.070312 L 17.257812 19.984375 L 20.347656 26.46875 L 16.855469 20.183594 L 19.550781 26.867188 L 16.457031 20.382812 L 18.753906 27.167969 L 16.058594 20.484375 L 17.855469 27.464844 L 15.660156 20.683594 L 17.058594 27.664062 L 15.261719 20.683594 L 16.160156 27.765625 L 14.863281 20.78125 L 15.261719 27.863281 L 14.464844 20.882812 L 14.464844 27.964844 L 13.964844 20.882812 "/>
<use xlink:href="#surface5" fill="#000000"/>
<path style=" stroke:none;fill-rule:nonzero;fill:rgb(13.72549%,12.156863%,12.54902%);fill-opacity:1;" d="M 7.480469 7.21875 C 7.28125 7.316406 1.597656 8.613281 1.597656 8.613281 C 1.597656 8.613281 4.488281 13.601562 4.589844 13.898438 C 4.488281 14.101562 1.394531 18.988281 1.394531 18.988281 C 1.394531 18.988281 6.980469 20.484375 7.183594 20.582031 C 7.28125 20.78125 8.480469 26.46875 8.480469 26.46875 C 8.480469 26.46875 13.464844 23.574219 13.765625 23.476562 C 13.964844 23.574219 18.851562 26.667969 18.851562 26.667969 C 18.851562 26.667969 20.347656 21.082031 20.449219 20.882812 C 20.648438 20.78125 26.332031 19.585938 26.332031 19.585938 C 26.332031 19.585938 23.441406 14.597656 23.339844 14.300781 C 23.441406 14.101562 26.53125 9.210938 26.53125 9.210938 C 26.53125 9.210938 20.945312 7.617188 20.746094 7.515625 C 20.648438 7.316406 19.449219 1.632812 19.449219 1.632812 C 19.449219 1.632812 14.464844 4.523438 14.164062 4.625 C 13.964844 4.523438 9.078125 1.433594 9.078125 1.433594 C 9.078125 1.433594 7.582031 7.019531 7.480469 7.21875 Z M 7.878906 7.617188 C 7.878906 7.617188 9.277344 2.628906 9.375 2.128906 C 9.773438 2.429688 14.164062 5.222656 14.164062 5.222656 C 14.164062 5.222656 18.652344 2.628906 19.152344 2.328125 C 19.25 2.828125 20.449219 7.914062 20.449219 7.914062 C 20.449219 7.914062 25.4375 9.3125 25.933594 9.410156 C 25.636719 9.8125 22.84375 14.199219 22.84375 14.199219 C 22.84375 14.199219 25.4375 18.6875 25.734375 19.1875 C 25.234375 19.285156 20.148438 20.484375 20.148438 20.484375 C 20.148438 20.484375 18.753906 25.472656 18.652344 25.96875 C 18.253906 25.671875 13.863281 22.878906 13.863281 22.878906 C 13.863281 22.878906 9.375 25.472656 8.878906 25.769531 C 8.777344 25.269531 7.582031 20.183594 7.582031 20.183594 C 7.582031 20.183594 2.59375 18.789062 2.09375 18.6875 C 2.394531 18.289062 5.1875 13.898438 5.1875 13.898438 C 5.1875 13.898438 2.59375 9.410156 2.292969 8.914062 C 2.792969 8.714844 7.878906 7.617188 7.878906 7.617188 Z M 7.878906 7.617188 "/>
<use xlink:href="#surface8" fill="#000000"/>
<path style=" stroke:none;fill-rule:nonzero;fill:rgb(13.72549%,12.156863%,12.54902%);fill-opacity:1;" d="M 7.980469 8.015625 C 6.382812 9.609375 5.484375 11.804688 5.484375 14 C 5.484375 18.6875 9.277344 22.480469 13.964844 22.480469 C 18.652344 22.480469 22.441406 18.6875 22.441406 14 C 22.441406 9.3125 18.652344 5.519531 13.964844 5.519531 C 11.671875 5.519531 9.574219 6.417969 7.980469 8.015625 Z M 5.785156 14 C 5.785156 11.804688 6.683594 9.710938 8.179688 8.214844 C 9.773438 6.617188 11.769531 5.820312 13.964844 5.820312 C 18.554688 5.820312 22.242188 9.511719 22.242188 14.101562 C 22.242188 18.6875 18.554688 22.378906 13.964844 22.378906 C 9.476562 22.277344 5.785156 18.589844 5.785156 14 Z M 5.785156 14 "/>
<use xlink:href="#surface11" fill="#000000"/>
<path style=" stroke:none;fill-rule:nonzero;fill:rgb(13.72549%,12.156863%,12.54902%);fill-opacity:1;" d="M 6.683594 14 C 6.683594 17.988281 9.976562 21.28125 13.964844 21.28125 C 17.953125 21.28125 21.246094 17.988281 21.246094 14 C 21.246094 10.011719 17.953125 6.71875 13.964844 6.71875 C 9.976562 6.71875 6.683594 10.011719 6.683594 14 Z M 6.980469 14 C 6.980469 10.109375 10.175781 7.019531 13.964844 7.019531 C 17.855469 7.019531 20.945312 10.210938 20.945312 14 C 20.945312 17.890625 17.753906 20.980469 13.964844 20.980469 C 10.074219 21.082031 6.980469 17.890625 6.980469 14 Z M 6.980469 14 "/>
<path style=" stroke:none;fill-rule:nonzero;fill:#ffffff;fill-opacity:1;" d="M 42.492188 5.820312 C 44.6875 5.820312 45.785156 6.417969 46.480469 7.019531 C 47.679688 8.015625 48.078125 9.3125 48.078125 10.507812 C 48.078125 12.003906 47.480469 13.402344 46.28125 14.199219 C 45.882812 14.5 45.285156 14.699219 44.585938 14.898438 L 49.476562 21.480469 L 45.683594 21.480469 L 41.496094 15.195312 L 41.097656 15.195312 L 41.097656 21.480469 L 38.003906 21.480469 L 38.003906 5.820312 Z M 40.996094 13.101562 L 41.894531 13.101562 C 42.492188 13.101562 44.886719 13.003906 44.886719 10.707031 C 44.886719 8.414062 42.492188 8.414062 41.894531 8.414062 L 40.996094 8.414062 Z M 40.996094 13.101562 "/>
<path style=" stroke:none;fill-rule:nonzero;fill:#ffffff;fill-opacity:1;" d="M 53.066406 5.820312 L 57.253906 16.292969 L 61.445312 5.820312 L 64.734375 5.820312 L 58.152344 21.480469 L 56.355469 21.480469 L 49.675781 5.820312 Z M 53.066406 5.820312 "/>
<path style=" stroke:none;fill-rule:nonzero;fill:#ffffff;fill-opacity:1;" d="M 74.3125 18.1875 L 68.027344 18.1875 L 66.632812 21.480469 L 63.339844 21.480469 L 70.023438 5.820312 L 72.417969 5.820312 L 79 21.480469 L 75.707031 21.480469 Z M 73.414062 15.695312 L 71.21875 10.109375 L 69.023438 15.695312 Z M 73.414062 15.695312 "/>
</g>
</svg>